<svg version="1.1" xmlns="http://www.w3.org/2000/svg" viewBox="0 0 906.039999999999 1108.2727272727273" width="906.039999999999" height="1108.2727272727273">
  <!-- svg-source:excalidraw -->
  
  <defs>
    <style>
      @font-face {
        font-family: "Virgil";
        src: url("https://www.iodraw.com/whiteboard/Virgil.woff2");
      }
      @font-face {
        font-family: "Cascadia";
        src: url("https://www.iodraw.com/whiteboard/Cascadia.woff2");
      }
    </style>
  </defs>
  <rect x="0" y="0" width="906.039999999999" height="1108.2727272727273" fill="#ffffff"></rect><g transform="translate(37 112.27272727272725) rotate(0 426 45)"><text x="0" y="21" font-family="Virgil, Segoe UI Emoji" font-size="23.2px" fill="#000000" text-anchor="start" style="white-space: pre;" direction="ltr">1、随意选出一个值(x)，一般选为左端点，右端点或者中间值，设置两个指针i , j分</text><text x="0" y="51" font-family="Virgil, Segoe UI Emoji" font-size="23.2px" fill="#000000" text-anchor="start" style="white-space: pre;" direction="ltr">别指向数组的两端外围，指向外围原因是下面while循环时会先进行++/--操作再调用</text><text x="0" y="81" font-family="Virgil, Segoe UI Emoji" font-size="23.2px" fill="#000000" text-anchor="start" style="white-space: pre;" direction="ltr">数组内容。</text></g><g transform="translate(37 264.27272727272725) rotate(0 429.5199999999995 14)"><text x="0" y="19.99999999999998" font-family="Virgil, Segoe UI Emoji" font-size="22.39999999999998px" fill="#000000" text-anchor="start" style="white-space: pre;" direction="ltr">2、以选出的值(x)为基准，将小于x的值放在x的左半边，将大于x的值放在x的右半边。</text></g><g stroke-linecap="round"><g transform="translate(54 414.27272727272725) rotate(0 397.4873199956817 -1.8964884459925884)"><path d="M0 0 C132.5 -0.63, 662.48 -3.16, 794.97 -3.79 M0 0 C132.5 -0.63, 662.48 -3.16, 794.97 -3.79" stroke="#000000" stroke-width="1" fill="none"></path></g></g><g stroke-linecap="round"><g transform="translate(255 363.27272727272725) rotate(0 0.5 23)"><path d="M0 0 C0.17 7.67, 0.83 38.33, 1 46 M0 0 C0.17 7.67, 0.83 38.33, 1 46" stroke="#000000" stroke-width="1" fill="none"></path></g><g transform="translate(255 363.27272727272725) rotate(0 0.5 23)"><path d="M-7.34 24.56 C-4.84 30.97, -2.35 37.38, 1 46 M-7.34 24.56 C-5.23 29.97, -3.13 35.39, 1 46" stroke="#000000" stroke-width="1" fill="none"></path></g><g transform="translate(255 363.27272727272725) rotate(0 0.5 23)"><path d="M8.4 24.22 C6.19 30.73, 3.97 37.24, 1 46 M8.4 24.22 C6.53 29.72, 4.66 35.22, 1 46" stroke="#000000" stroke-width="1" fill="none"></path></g></g><g transform="translate(245 319.27272727272725) rotate(0 11 22.916666666666686)"><text x="0" y="31.833333333333336" font-family="Virgil, Segoe UI Emoji" font-size="36.66666666666665px" fill="#000000" text-anchor="start" style="white-space: pre;" direction="ltr">x</text></g><g stroke-linecap="round"><g transform="translate(228 383.27272727272725) rotate(0 -80.98463100780612 1.6796672908258756)"><path d="M0 0 C-26.99 0.56, -134.97 2.8, -161.97 3.36 M0 0 C-26.99 0.56, -134.97 2.8, -161.97 3.36" stroke="#000000" stroke-width="1" fill="none"></path></g><g transform="translate(228 383.27272727272725) rotate(0 -80.98463100780612 1.6796672908258756)"><path d="M-134 -7.48 C-141.55 -4.56, -149.11 -1.63, -161.97 3.36 M-134 -7.48 C-143.83 -3.67, -153.66 0.14, -161.97 3.36" stroke="#000000" stroke-width="1" fill="none"></path></g><g transform="translate(228 383.27272727272725) rotate(0 -80.98463100780612 1.6796672908258756)"><path d="M-133.57 13.03 C-141.24 10.42, -148.91 7.81, -161.97 3.36 M-133.57 13.03 C-143.55 9.63, -153.53 6.23, -161.97 3.36" stroke="#000000" stroke-width="1" fill="none"></path></g></g><g stroke-linecap="round"><g transform="translate(287 381.27272727272725) rotate(0 280 -1.5)"><path d="M0 0 C93.33 -0.5, 466.67 -2.5, 560 -3 M0 0 C93.33 -0.5, 466.67 -2.5, 560 -3" stroke="#000000" stroke-width="1" fill="none"></path></g><g transform="translate(287 381.27272727272725) rotate(0 280 -1.5)"><path d="M531.86 7.41 C539.87 4.45, 547.87 1.49, 560 -3 M531.86 7.41 C537.86 5.19, 543.86 2.97, 560 -3" stroke="#000000" stroke-width="1" fill="none"></path></g><g transform="translate(287 381.27272727272725) rotate(0 280 -1.5)"><path d="M531.75 -13.11 C539.79 -10.23, 547.82 -7.36, 560 -3 M531.75 -13.11 C537.77 -10.96, 543.79 -8.8, 560 -3" stroke="#000000" stroke-width="1" fill="none"></path></g></g><g stroke-linecap="round"><g transform="translate(48 372.27272727272725) rotate(0 1 32)"><path d="M0 0 C0.33 10.67, 1.67 53.33, 2 64 M0 0 C0.33 10.67, 1.67 53.33, 2 64" stroke="#000000" stroke-width="2" fill="none"></path></g></g><g stroke-linecap="round"><g transform="translate(856 363.27272727272725) rotate(0 0.5 36.5)"><path d="M0 0 C0.17 12.17, 0.83 60.83, 1 73 M0 0 C0.17 12.17, 0.83 60.83, 1 73" stroke="#000000" stroke-width="2" fill="none"></path></g></g><g transform="translate(336 874.2727272727273) rotate(0 87 19.65865384615381)"><text x="0" y="27.317307692307665" font-family="Virgil, Segoe UI Emoji" font-size="31.001131221719515px" fill="#000000" text-anchor="start" style="white-space: pre;" direction="ltr">&gt;=x&amp;&amp;&lt;=x2</text></g><g transform="translate(38 766.2727272727273) rotate(0 422.5 37.5)"><text x="0" y="18" font-family="Virgil, Segoe UI Emoji" font-size="20.00000000000001px" fill="#000000" text-anchor="start" style="white-space: pre;" direction="ltr">3、递归调用quick_sort函数，在左半边区间和右半边区间再次选出两个值(x1,x2)，将两个区间</text><text x="0" y="43" font-family="Virgil, Segoe UI Emoji" font-size="20.00000000000001px" fill="#000000" text-anchor="start" style="white-space: pre;" direction="ltr">共分为四部分，以此类推，当分到区间只有两个值的时候，再调用一次quick_sort函数，即排序</text><text x="0" y="68" font-family="Virgil, Segoe UI Emoji" font-size="20.00000000000001px" fill="#000000" text-anchor="start" style="white-space: pre;" direction="ltr">完成。</text></g><g stroke-linecap="round"><g transform="translate(62.5 968.7727272727273) rotate(0 397.4873199956817 -1.8964884459926452)"><path d="M0 0 C132.5 -0.63, 662.48 -3.16, 794.97 -3.79 M0 0 C132.5 -0.63, 662.48 -3.16, 794.97 -3.79" stroke="#000000" stroke-width="1" fill="none"></path></g></g><g stroke-linecap="round"><g transform="translate(263.5 917.7727272727273) rotate(0 0.5 23)"><path d="M0 0 C0.17 7.67, 0.83 38.33, 1 46 M0 0 C0.17 7.67, 0.83 38.33, 1 46" stroke="#000000" stroke-width="1" fill="none"></path></g><g transform="translate(263.5 917.7727272727273) rotate(0 0.5 23)"><path d="M-7.34 24.56 C-4.05 33, -0.77 41.44, 1 46 M-7.34 24.56 C-4.12 32.84, -0.9 41.13, 1 46" stroke="#000000" stroke-width="1" fill="none"></path></g><g transform="translate(263.5 917.7727272727273) rotate(0 0.5 23)"><path d="M8.4 24.22 C5.48 32.79, 2.57 41.37, 1 46 M8.4 24.22 C5.54 32.63, 2.68 41.05, 1 46" stroke="#000000" stroke-width="1" fill="none"></path></g></g><g stroke-linecap="round"><g transform="translate(214.5 934.7727272727273) rotate(0 -70.5 0.5)"><path d="M0 0 C-23.5 0.17, -117.5 0.83, -141 1 M0 0 C-23.5 0.17, -117.5 0.83, -141 1" stroke="#000000" stroke-width="1" fill="none"></path></g><g transform="translate(214.5 934.7727272727273) rotate(0 -70.5 0.5)"><path d="M-112.88 -9.46 C-123.66 -5.45, -134.44 -1.44, -141 1 M-112.88 -9.46 C-121.6 -6.22, -130.32 -2.97, -141 1" stroke="#000000" stroke-width="1" fill="none"></path></g><g transform="translate(214.5 934.7727272727273) rotate(0 -70.5 0.5)"><path d="M-112.74 11.06 C-123.57 7.2, -134.4 3.35, -141 1 M-112.74 11.06 C-121.5 7.94, -130.27 4.82, -141 1" stroke="#000000" stroke-width="1" fill="none"></path></g></g><g stroke-linecap="round"><g transform="translate(295.5 935.7727272727273) rotate(0 280 -1.5)"><path d="M0 0 C93.33 -0.5, 466.67 -2.5, 560 -3 M0 0 C93.33 -0.5, 466.67 -2.5, 560 -3" stroke="#000000" stroke-width="1" fill="none"></path></g><g transform="translate(295.5 935.7727272727273) rotate(0 280 -1.5)"><path d="M531.86 7.41 C541.12 3.99, 550.37 0.56, 560 -3 M531.86 7.41 C537.58 5.3, 543.3 3.18, 560 -3" stroke="#000000" stroke-width="1" fill="none"></path></g><g transform="translate(295.5 935.7727272727273) rotate(0 280 -1.5)"><path d="M531.75 -13.11 C541.04 -9.78, 550.33 -6.46, 560 -3 M531.75 -13.11 C537.5 -11.05, 543.24 -9, 560 -3" stroke="#000000" stroke-width="1" fill="none"></path></g></g><g stroke-linecap="round"><g transform="translate(56.5 926.7727272727273) rotate(0 1 32)"><path d="M0 0 C0.33 10.67, 1.67 53.33, 2 64 M0 0 C0.33 10.67, 1.67 53.33, 2 64" stroke="#000000" stroke-width="2" fill="none"></path></g></g><g stroke-linecap="round"><g transform="translate(864.5 917.7727272727273) rotate(0 0.5 36.5)"><path d="M0 0 C0.17 12.17, 0.83 60.83, 1 73 M0 0 C0.17 12.17, 0.83 60.83, 1 73" stroke="#000000" stroke-width="2" fill="none"></path></g></g><g transform="translate(252 865.3560606060607) rotate(0 11 22.91666666666663)"><text x="0" y="31.833333333333336" font-family="Virgil, Segoe UI Emoji" font-size="36.66666666666665px" fill="#000000" text-anchor="start" style="white-space: pre;" direction="ltr">x</text></g><g stroke-linecap="round"><g transform="translate(147.5895520259146 916.2727272727273) rotate(0 0.4552239870427002 24)"><path d="M0 0 C0.15 8, 0.76 40, 0.91 48 M0 0 C0.15 8, 0.76 40, 0.91 48" stroke="#000000" stroke-width="1" fill="none"></path></g><g transform="translate(147.5895520259146 916.2727272727273) rotate(0 0.4552239870427002 24)"><path d="M-7.73 25.6 C-5.58 31.16, -3.44 36.71, 0.91 48 M-7.73 25.6 C-5.88 30.38, -4.04 35.15, 0.91 48" stroke="#000000" stroke-width="1" fill="none"></path></g><g transform="translate(147.5895520259146 916.2727272727273) rotate(0 0.4552239870427002 24)"><path d="M8.69 25.29 C6.76 30.92, 4.83 36.55, 0.91 48 M8.69 25.29 C7.03 30.13, 5.37 34.97, 0.91 48" stroke="#000000" stroke-width="1" fill="none"></path></g></g><g transform="translate(134 867.3560606060603) rotate(0 13.217391304347814 19)"><text x="0" y="27" font-family="Virgil, Segoe UI Emoji" font-size="30.289855072463755px" fill="#000000" text-anchor="start" style="white-space: pre;" direction="ltr">x1</text></g><g transform="translate(558 874.3560606060603) rotate(0 18.260869565217376 17.5)"><text x="0" y="24.99999999999997" font-family="Virgil, Segoe UI Emoji" font-size="27.898550724637666px" fill="#000000" text-anchor="start" style="white-space: pre;" direction="ltr">x2</text></g><g stroke-linecap="round"><g transform="translate(576.5 915.2727272727273) rotate(0 0.5 23)"><path d="M0 0 C0.17 7.67, 0.83 38.33, 1 46 M0 0 C0.17 7.67, 0.83 38.33, 1 46" stroke="#000000" stroke-width="1" fill="none"></path></g><g transform="translate(576.5 915.2727272727273) rotate(0 0.5 23)"><path d="M-7.34 24.56 C-4.79 31.11, -2.24 37.67, 1 46 M-7.34 24.56 C-4.26 32.47, -1.19 40.37, 1 46" stroke="#000000" stroke-width="1" fill="none"></path></g><g transform="translate(576.5 915.2727272727273) rotate(0 0.5 23)"><path d="M8.4 24.22 C6.14 30.88, 3.87 37.54, 1 46 M8.4 24.22 C5.67 32.25, 2.94 40.28, 1 46" stroke="#000000" stroke-width="1" fill="none"></path></g></g><g transform="translate(679 866.6140734265734) rotate(0 37.5 19.5)"><text x="0" y="27" font-family="Virgil, Segoe UI Emoji" font-size="31.001131221719515px" fill="#000000" text-anchor="start" style="white-space: pre;" direction="ltr">&gt;=x2</text></g><g transform="translate(493 321.83155080213896) rotate(0 77.5 20.5)"><text x="0" y="29" font-family="Virgil, Segoe UI Emoji" font-size="32.35294117647058px" fill="#000000" text-anchor="start" style="white-space: pre;" direction="ltr">&gt;=x&amp;&amp;&lt;=r</text></g><g transform="translate(10 322.27272727272725) rotate(0 6 25)"><text x="0" y="35.00000000000002" font-family="Virgil, Segoe UI Emoji" font-size="40.000000000000014px" fill="#000000" text-anchor="start" style="white-space: pre;" direction="ltr">l</text></g><g transform="translate(22 883.2727272727273) rotate(0 6 25)"><text x="0" y="35.00000000000002" font-family="Virgil, Segoe UI Emoji" font-size="40.000000000000014px" fill="#000000" text-anchor="start" style="white-space: pre;" direction="ltr">l</text></g><g transform="translate(868 311.27272727272725) rotate(0 9 25)"><text x="0" y="35" font-family="Virgil, Segoe UI Emoji" font-size="40.000000000000014px" fill="#000000" text-anchor="start" style="white-space: pre;" direction="ltr">r</text></g><g transform="translate(871 869.2727272727273) rotate(0 9 25)"><text x="0" y="35" font-family="Virgil, Segoe UI Emoji" font-size="40.000000000000014px" fill="#000000" text-anchor="start" style="white-space: pre;" direction="ltr">r</text></g><g transform="translate(78 321.27272727272725) rotate(0 65.10000000000002 17.5)"><text x="0" y="25.00000000000002" font-family="Virgil, Segoe UI Emoji" font-size="28.000000000000007px" fill="#000000" text-anchor="start" style="white-space: pre;" direction="ltr">&gt;=l&amp;&amp;&lt;=x</text></g><g transform="translate(152.88127836989338 849.9430586439448) rotate(20.086884310084557 41 12.5)"><text x="0" y="20" font-family="Cascadia, Segoe UI Emoji" font-size="20.24691358024691px" fill="#c92a2a" text-anchor="start" style="white-space: pre;" direction="ltr">左边同理</text></g><g transform="translate(231 209.77272727272725) rotate(0 199.5 12)"><text x="0" y="19" font-family="Cascadia, Segoe UI Emoji" font-size="20px" fill="#862e9c" text-anchor="start" style="white-space: pre;" direction="ltr">int x=a[(l+r) &gt;&gt; 1], i=l-1, j=r+1;</text></g><g transform="translate(21 503.77272727272725) rotate(0 164 72)"><text x="0" y="19" font-family="Cascadia, Segoe UI Emoji" font-size="20px" fill="#862e9c" text-anchor="start" style="white-space: pre;" direction="ltr">while(i&lt;j)</text><text x="0" y="43" font-family="Cascadia, Segoe UI Emoji" font-size="20px" fill="#862e9c" text-anchor="start" style="white-space: pre;" direction="ltr">{</text><text x="0" y="67" font-family="Cascadia, Segoe UI Emoji" font-size="20px" fill="#862e9c" text-anchor="start" style="white-space: pre;" direction="ltr">    while(a[++i] &lt; x);</text><text x="0" y="91" font-family="Cascadia, Segoe UI Emoji" font-size="20px" fill="#862e9c" text-anchor="start" style="white-space: pre;" direction="ltr">    while(a[--j] &gt; x);</text><text x="0" y="115" font-family="Cascadia, Segoe UI Emoji" font-size="20px" fill="#862e9c" text-anchor="start" style="white-space: pre;" direction="ltr">    if(i&lt;j) swap(a[i],a[j]);</text><text x="0" y="139" font-family="Cascadia, Segoe UI Emoji" font-size="20px" fill="#862e9c" text-anchor="start" style="white-space: pre;" direction="ltr">}</text></g><g stroke-linecap="round"><g transform="translate(368 173.27272727272725) rotate(0 20.117702372069402 0.4497027225792465)"><path d="M-0.1 1.08 C6.83 1.12, 34.84 -0.02, 41.85 -0.18 M-1.62 0.61 C5.22 0.78, 34.13 0.67, 41.35 0.73" stroke="#c92a2a" stroke-width="2" fill="none"></path></g></g><g stroke-linecap="round"><g transform="translate(367.5 179.77272727272725) rotate(0 20.825742565686824 0.4184612610374927)"><path d="M0.78 -0.98 C7.86 -0.8, 35.17 0.37, 41.92 0.52 M-0.27 1.11 C6.78 1.51, 34.64 1.88, 41.46 1.81" stroke="#c92a2a" stroke-width="2" fill="none"></path></g></g><g transform="translate(437 452.77272727272725) rotate(0 219 50)"><text x="0" y="18" font-family="Virgil, Segoe UI Emoji" font-size="20px" fill="#000000" text-anchor="start" style="white-space: pre;" direction="ltr">当i &lt; j时，先移动指针 i ，当a[i] &gt;= x时停止，</text><text x="0" y="43" font-family="Virgil, Segoe UI Emoji" font-size="20px" fill="#000000" text-anchor="start" style="white-space: pre;" direction="ltr">此时移动指针 j ，当a[j]&lt;=x时停止。若某个指</text><text x="0" y="68" font-family="Virgil, Segoe UI Emoji" font-size="20px" fill="#000000" text-anchor="start" style="white-space: pre;" direction="ltr">针没有停止直到指针 i 和 指针 j 相遇，则说明</text><text x="0" y="93" font-family="Virgil, Segoe UI Emoji" font-size="20px" fill="#000000" text-anchor="start" style="white-space: pre;" direction="ltr">该区间已经排序完成，指针将指向x所在位置。</text></g><g transform="translate(441 573.2727272727273) rotate(0 212 75)"><text x="0" y="18" font-family="Virgil, Segoe UI Emoji" font-size="20px" fill="#000000" text-anchor="start" style="white-space: pre;" direction="ltr">例如：3,1,2,4,5，取2为x，第</text><text x="0" y="43" font-family="Virgil, Segoe UI Emoji" font-size="20px" fill="#000000" text-anchor="start" style="white-space: pre;" direction="ltr">一次循环时，i 指向3，j 指向5，3 不满足&lt;x的</text><text x="0" y="68" font-family="Virgil, Segoe UI Emoji" font-size="20px" fill="#000000" text-anchor="start" style="white-space: pre;" direction="ltr">条件，于是i指针停在3处，5满足 &gt;x的条件，继</text><text x="0" y="93" font-family="Virgil, Segoe UI Emoji" font-size="20px" fill="#000000" text-anchor="start" style="white-space: pre;" direction="ltr">续向前移动，4也满足&gt;x的条件，指针前移，指</text><text x="0" y="118" font-family="Virgil, Segoe UI Emoji" font-size="20px" fill="#000000" text-anchor="start" style="white-space: pre;" direction="ltr">向2,2==x,不满足条件，j指针停止在2处，此时</text><text x="0" y="143" font-family="Virgil, Segoe UI Emoji" font-size="20px" fill="#000000" text-anchor="start" style="white-space: pre;" direction="ltr">i == 0, j == 2, i &lt; j ,swqp(a[i],a[j]).</text></g><g stroke-opacity="0.4" fill-opacity="0.4" stroke-linecap="round" transform="translate(800 477.27272727272725) rotate(0 30 12)"><path d="M-0.28 0.01 L58.84 -0.5 L59.8 23.78 L-1.32 23.91" stroke="none" stroke-width="0" fill="#228be6"></path><path d="M-0.55 -1.9 C17.34 -1.92, 36.88 0.09, 60.72 -1.17 M-0.6 0.56 C13.48 -0.54, 28.42 -0.16, 59.07 0.56 M59.38 0.04 C59.08 7.75, 59.84 14.57, 60.37 24.83 M60.11 -0.19 C59.22 8.98, 59.24 17.23, 59.93 24.4 M60.87 23.22 C40.02 23.45, 17.46 25.84, 0.18 24.47 M60.74 24.18 C37.25 24.11, 12.76 23.23, -0.39 24.53 M0.59 24.9 C-0.46 16.88, 1.88 7.69, 1.32 -0.26 M-0.99 23.4 C-0.41 16.68, -0.7 7.29, -0.4 0.84" stroke="#c92a2a" stroke-width="2" fill="none"></path></g><g stroke-opacity="0.4" fill-opacity="0.4" stroke-linecap="round" transform="translate(437 500.27272727272725) rotate(0 48.5 14)"><path d="M-0.21 1.27 L98.67 1.47 L95.76 29.1 L-1.58 27.4" stroke="none" stroke-width="0" fill="#228be6"></path><path d="M0.71 -0.28 C33.76 -0.25, 65.15 0.86, 95.32 -1.59 M-0.32 -0.56 C29.85 0.77, 61.99 1.05, 97.07 -0.6 M95.8 -0.36 C99.01 8.69, 96.12 21.08, 96.73 26.65 M97.72 0.23 C98.19 6.93, 97.62 12.58, 96.78 28.41 M95.22 26.51 C59.96 29.97, 28.54 27.45, -1.4 29.6 M97 28.13 C75.46 28.35, 53.65 29.32, 0.72 27.76 M-1.63 29.61 C0.61 20.41, 1.63 10.37, -0.59 -0.71 M-0.38 27.97 C0.7 17.33, 0.66 7.14, -0.1 0.95" stroke="#c92a2a" stroke-width="2" fill="none"></path></g><g stroke-opacity="0.4" fill-opacity="0.4" stroke-linecap="round" transform="translate(737.5 593.2727272727273) rotate(0 65 14.5)"><path d="M-1.73 1.4 L128.65 -0.02 L129.27 28.12 L1.07 27.58" stroke="none" stroke-width="0" fill="#228be6"></path><path d="M-1.68 1.58 C35.69 0.38, 68.28 2.26, 130.48 0.76 M0.47 -0.63 C38.43 -0.38, 78.36 -0.18, 130.64 -0.35 M131.3 0.12 C131.11 11.11, 130.9 21.46, 130.04 27.55 M129.66 -0.51 C130.4 5.82, 129.52 13.08, 130.2 28.25 M131.25 27.64 C89.02 31.05, 48.09 31.2, 1.39 27 M130.4 29.15 C102.79 29.76, 75.08 28.34, 0.33 29.68 M0.34 29.44 C0.42 20.86, -1.75 10.92, -1.82 0.14 M0.9 29.83 C-0.63 19, -0.37 11.09, -0.47 -0.94" stroke="#c92a2a" stroke-width="2" fill="none"></path></g><g stroke-opacity="0.4" fill-opacity="0.4" stroke-linecap="round" transform="translate(443 618.7727272727273) rotate(0 109 15)"><path d="M-1.69 0.02 L216.46 0.97 L218.75 30.17 L-0.67 28.01" stroke="none" stroke-width="0" fill="#228be6"></path><path d="M0.4 0.77 C80.59 1.72, 159.92 2.28, 218.44 1.49 M0.83 0.16 C76.21 0.25, 153.76 1.6, 218.49 -0.53 M218.44 0.15 C216.86 7.86, 216.89 17.75, 217.29 31.97 M217.49 -0.42 C217.53 7.2, 218.39 14.66, 217.61 30.04 M216.71 29.19 C167.27 31.42, 116.45 30.9, 1.25 30.17 M217.46 29.17 C150.4 29.57, 81.48 29.18, 0.19 29.5 M0.78 30.45 C-1.4 20.12, 0.88 7.51, 1.98 0.07 M-0.07 30.61 C0.81 21.1, 0.21 11.5, -0.33 0.21" stroke="#c92a2a" stroke-width="2" fill="none"></path></g><g stroke-opacity="0.4" fill-opacity="0.4" stroke-linecap="round" transform="translate(481 670.7727272727273) rotate(0 160 13.5)"><path d="M0.87 1.31 L319.87 -2 L321.73 27.34 L1.31 27.68" stroke="none" stroke-width="0" fill="#228be6"></path><path d="M1.29 -0.92 C106.53 2.76, 212.94 1.26, 319.63 -0.27 M0.02 -0.07 C123.95 -0.75, 248.66 -1.53, 319.35 0.09 M321.31 1.75 C320.72 11.06, 319.8 19.59, 321.32 28.02 M320.52 -0.21 C319.59 7.53, 319.92 14.78, 320.31 26.09 M320.12 27.35 C194.25 25, 68.84 25.11, -0.3 27.09 M319.32 27.22 C228.21 26.77, 136.03 26.86, 0.21 26.73 M1.4 25.8 C-1.75 19.71, -0.58 14.9, -0.48 -1.74 M0.57 26.36 C0.61 22.09, 0.32 15.33, 0.35 0.87" stroke="#c92a2a" stroke-width="2" fill="none"></path></g><g transform="translate(67 1026.2727272727273) rotate(0 224.5 36)"><text x="0" y="19" font-family="Cascadia, Segoe UI Emoji" font-size="20px" fill="#862e9c" text-anchor="start" style="white-space: pre;" direction="ltr">quick_sort(a,l,j);        //排序左边区间</text><text x="0" y="43" font-family="Cascadia, Segoe UI Emoji" font-size="20px" fill="#862e9c" text-anchor="start" style="white-space: pre;" direction="ltr"></text><text x="0" y="67" font-family="Cascadia, Segoe UI Emoji" font-size="20px" fill="#862e9c" text-anchor="start" style="white-space: pre;" direction="ltr">quick_sort(a,j+1,r);      //排序右边区间</text></g><g transform="translate(33 701.2727272727273) rotate(0 125.85999999999996 14.5)"><text x="0" y="20" font-family="Virgil, Segoe UI Emoji" font-size="23.19999999999999px" fill="#0b7285" text-anchor="start" style="white-space: pre;" direction="ltr">做右边的操作直到i == j</text></g><g stroke-linecap="round"><g transform="translate(306 703.2727272727273) rotate(0 51.146796251027865 -75.41164395287632)"><path d="M1.11 -0.47 C18.23 -25.71, 85.47 -125.34, 102.06 -150.35 M0.24 -1.76 C17.34 -26.32, 85.1 -124.37, 101.66 -149" stroke="#0b7285" stroke-width="2" fill="none"></path></g><g transform="translate(306 703.2727272727273) rotate(0 51.146796251027865 -75.41164395287632)"><path d="M93.45 -118.17 C95.22 -127.84, 96.74 -132.89, 103.08 -150.11 M93.77 -119.36 C97.17 -128.99, 98.92 -138.11, 102.38 -148.8" stroke="#0b7285" stroke-width="2" fill="none"></path></g><g transform="translate(306 703.2727272727273) rotate(0 51.146796251027865 -75.41164395287632)"><path d="M76.5 -129.75 C82.57 -136.71, 88.28 -138.9, 103.08 -150.11 M76.83 -130.93 C85.65 -136.97, 92.84 -142.37, 102.38 -148.8" stroke="#0b7285" stroke-width="2" fill="none"></path></g></g><g transform="translate(306 10) rotate(0 125.06666666666672 33.5)"><text x="125.06666666666669" y="47" font-family="Virgil, Segoe UI Emoji" font-size="53.60000000000001px" fill="#5c940d" text-anchor="middle" style="white-space: pre;" direction="ltr">QuickSort</text></g></svg>